<svg width="21" height="30" viewBox="0 0 21 30" fill="none" xmlns="http://www.w3.org/2000/svg">
<path d="M10.5 20.625C13.6631 20.625 16.2273 18.1066 16.2273 15V5.625C16.2273 2.51836 13.6631 0 10.5 0C7.33687 0 4.77273 2.51836 4.77273 5.625V15C4.77273 18.1066 7.33687 20.625 10.5 20.625ZM20.0455 11.25H19.0909C18.5635 11.25 18.1364 11.6695 18.1364 12.1875V15C18.1364 19.3828 14.2889 22.8996 9.73696 22.4637C5.76963 22.0834 2.86364 18.5807 2.86364 14.666V12.1875C2.86364 11.6695 2.43648 11.25 1.90909 11.25H0.954545C0.427159 11.25 0 11.6695 0 12.1875V14.5406C0 19.793 3.81639 24.4752 9.06818 25.1865V27.1875H5.72727C5.19989 27.1875 4.77273 27.607 4.77273 28.125V29.0625C4.77273 29.5805 5.19989 30 5.72727 30H15.2727C15.8001 30 16.2273 29.5805 16.2273 29.0625V28.125C16.2273 27.607 15.8001 27.1875 15.2727 27.1875H11.9318V25.2088C17.0452 24.5197 21 20.209 21 15V12.1875C21 11.6695 20.5728 11.25 20.0455 11.25Z" fill="#F6D525"/>
</svg>
