<svg width="101" height="30" viewBox="0 0 101 30" fill="none" xmlns="http://www.w3.org/2000/svg">
<path d="M11.6704 9.1088C13.36 9.1088 14.8448 9.5312 16.1248 10.376C17.4304 11.1952 18.4416 12.36 19.1584 13.8704C19.8752 15.3808 20.2336 17.1344 20.2336 19.1312C20.2336 21.128 19.8624 22.9072 19.12 24.4688C18.4032 26.0048 17.392 27.1952 16.0864 28.04C14.8064 28.8848 13.3344 29.3072 11.6704 29.3072C10.2368 29.3072 8.9568 29 7.8304 28.3856C6.7296 27.7712 5.8976 26.9136 5.3344 25.8128V29H0.6112V0.737597H5.3728V12.5264C5.9616 11.4512 6.8064 10.6192 7.9072 10.0304C9.008 9.416 10.2624 9.1088 11.6704 9.1088ZM10.4032 25.544C11.9904 25.544 13.2192 24.9808 14.0896 23.8544C14.96 22.728 15.3952 21.1536 15.3952 19.1312C15.3952 17.1344 14.96 15.5984 14.0896 14.5232C13.2192 13.4224 11.9776 12.872 10.3648 12.872C8.752 12.872 7.5104 13.4224 6.64 14.5232C5.7696 15.624 5.3344 17.1856 5.3344 19.208C5.3344 21.256 5.7696 22.8304 6.64 23.9312C7.5104 25.0064 8.7648 25.544 10.4032 25.544ZM41.3965 19.5536H28.0333C28.1357 21.6272 28.6477 23.1632 29.5693 24.1616C30.5165 25.1344 31.9117 25.6208 33.7549 25.6208C35.8797 25.6208 37.8509 24.9296 39.6685 23.5472L41.0509 26.8496C40.1293 27.592 38.9901 28.1936 37.6333 28.6544C36.3021 29.0896 34.9453 29.3072 33.5629 29.3072C30.3885 29.3072 27.8925 28.4112 26.0749 26.6192C24.2573 24.8272 23.3485 22.3696 23.3485 19.2464C23.3485 17.2752 23.7453 15.5216 24.5389 13.9856C25.3325 12.4496 26.4461 11.2592 27.8797 10.4144C29.3133 9.544 30.9389 9.1088 32.7565 9.1088C35.4189 9.1088 37.5181 9.9792 39.0541 11.72C40.6157 13.4352 41.3965 15.8032 41.3965 18.824V19.5536ZM32.8717 12.5648C31.5917 12.5648 30.5421 12.9488 29.7229 13.7168C28.9293 14.4592 28.4173 15.5472 28.1869 16.9808H37.2109C37.0573 15.5216 36.6093 14.4208 35.8669 13.6784C35.1501 12.936 34.1517 12.5648 32.8717 12.5648ZM64.0084 9.608V29H59.2852V25.8896C58.6964 26.9648 57.8516 27.8096 56.7508 28.424C55.65 29.0128 54.3956 29.3072 52.9876 29.3072C51.298 29.3072 49.8004 28.8976 48.4948 28.0784C47.1892 27.2592 46.178 26.0944 45.4612 24.584C44.7444 23.0736 44.386 21.32 44.386 19.3232C44.386 17.3264 44.7444 15.56 45.4612 14.024C46.2036 12.4624 47.2276 11.2592 48.5332 10.4144C49.8388 9.544 51.3236 9.1088 52.9876 9.1088C54.3956 9.1088 55.65 9.416 56.7508 10.0304C57.8516 10.6192 58.6964 11.4512 59.2852 12.5264V9.608H64.0084ZM54.2932 25.544C55.8804 25.544 57.1092 24.9936 57.9796 23.8928C58.85 22.792 59.2852 21.2432 59.2852 19.2464C59.2852 17.1984 58.85 15.624 57.9796 14.5232C57.1092 13.4224 55.8676 12.872 54.2548 12.872C52.6676 12.872 51.426 13.448 50.53 14.6C49.6596 15.7264 49.2244 17.3008 49.2244 19.3232C49.2244 21.32 49.6596 22.856 50.53 23.9312C51.426 25.0064 52.6804 25.544 54.2932 25.544ZM75.3418 13.2176V21.896C75.3418 24.1744 76.4042 25.3136 78.529 25.3136C79.1178 25.3136 79.7578 25.2112 80.449 25.0064V28.808C79.6042 29.1152 78.5802 29.2688 77.377 29.2688C75.1754 29.2688 73.4858 28.6544 72.3082 27.4256C71.1306 26.1968 70.5418 24.4304 70.5418 22.1264V13.2176H66.817V9.608H70.5418V4.8848L75.3418 3.272V9.608H80.4874V13.2176H75.3418ZM100.027 25.352V29H83.1691V25.6592L93.8827 13.2176H83.3995V9.608H99.6043V12.872L88.8523 25.352H100.027Z" fill="#F7D525" fill-opacity="0.8"/>
</svg>
