<svg width="21" height="20" viewBox="0 0 21 20" fill="none" xmlns="http://www.w3.org/2000/svg">
<path d="M15.0838 6.66666C15.0838 5.34058 14.554 4.06881 13.6111 3.13113C12.6682 2.19345 11.3893 1.66666 10.0558 1.66666C8.72233 1.66666 7.44345 2.19345 6.50053 3.13113C5.55761 4.06881 5.02788 5.34058 5.02788 6.66666C5.02788 12.5 2.51392 14.1667 2.51392 14.1667H17.5977C17.5977 14.1667 15.0838 12.5 15.0838 6.66666Z" stroke="black" stroke-width="1.55456" stroke-linecap="round" stroke-linejoin="round"/>
<path d="M11.5056 17.5C11.3583 17.7526 11.1469 17.9622 10.8924 18.1079C10.638 18.2537 10.3495 18.3304 10.0559 18.3304C9.76231 18.3304 9.47385 18.2537 9.21942 18.1079C8.96499 17.9622 8.75353 17.7526 8.6062 17.5" stroke="black" stroke-width="1.55456" stroke-linecap="round" stroke-linejoin="round"/>
</svg>
