<svg width="32" height="24" viewBox="0 0 32 24" fill="none" xmlns="http://www.w3.org/2000/svg">
<path d="M21.0506 15.6707H23.3969C23.7879 15.6707 24.179 15.2797 24.179 14.8886V6.67656C24.179 6.28551 23.7879 5.89446 23.3969 5.89446H21.0506C20.6595 5.89446 20.2685 6.28551 20.2685 6.67656V14.8886C20.2685 15.2797 20.6595 15.6707 21.0506 15.6707ZM26.9163 15.6707H29.2626C29.6537 15.6707 30.0447 15.2797 30.0447 14.8886V0.81079C30.0447 0.419738 29.6537 0.0286865 29.2626 0.0286865H26.9163C26.5253 0.0286865 26.1342 0.419738 26.1342 0.81079V14.8886C26.1342 15.2797 26.5253 15.6707 26.9163 15.6707ZM9.31901 15.6707H11.6653C12.0564 15.6707 12.4474 15.2797 12.4474 14.8886V10.5871C12.4474 10.196 12.0564 9.80497 11.6653 9.80497H9.31901C8.92796 9.80497 8.53691 10.196 8.53691 10.5871V14.8886C8.53691 15.2797 8.92796 15.6707 9.31901 15.6707ZM15.1848 15.6707H17.5311C17.9221 15.6707 18.3132 15.2797 18.3132 14.8886V2.76605C18.3132 2.375 17.9221 1.98394 17.5311 1.98394H15.1848C14.7937 1.98394 14.4027 2.375 14.4027 2.76605V14.8886C14.4027 15.2797 14.7937 15.6707 15.1848 15.6707ZM31.0224 19.5813H4.6264V1.00632C4.6264 0.466175 4.18891 0.0286865 3.64877 0.0286865H1.69351C1.15337 0.0286865 0.715881 0.466175 0.715881 1.00632V21.5365C0.715881 22.6162 1.59147 23.4918 2.67114 23.4918H31.0224C31.5625 23.4918 32 23.0543 32 22.5141V20.5589C32 20.0188 31.5625 19.5813 31.0224 19.5813Z" fill="#F6D525"/>
</svg>
