<svg width="35" height="35" viewBox="0 0 35 35" fill="none" xmlns="http://www.w3.org/2000/svg">
<path d="M34.7991 20.7897L30.3984 32.1059C30.0559 32.9866 29.5655 33.7172 28.9762 34.225C28.3868 34.7328 27.719 35 27.0393 35H2.73589C1.61037 35 0.909089 33.1686 1.4762 31.7103L5.87696 20.3941C6.21944 19.5134 6.70982 18.7828 7.29921 18.275C7.8886 17.7672 8.55642 17.5 9.23611 17.5H33.5395C34.665 17.5 35.3663 19.3314 34.7991 20.7897ZM9.23611 14.5833H29.1667V10.2083C29.1667 7.79206 27.8609 5.83333 26.25 5.83333H16.5278L12.6389 0H2.91667C1.30582 0 0 1.95872 0 4.375V29.7177L4.19739 18.9244C5.2387 16.2467 7.16947 14.5833 9.23611 14.5833Z" fill="#757574"/>
</svg>
