<svg width="38" height="12" viewBox="0 0 38 12" fill="none" xmlns="http://www.w3.org/2000/svg">
<path d="M7.784 0.93V7.776C7.784 8.87733 7.48067 9.71267 6.874 10.282C6.26733 10.8513 5.376 11.136 4.2 11.136C3.108 11.136 2.14667 10.9073 1.316 10.45L1.596 9.12C2.45467 9.568 3.30867 9.792 4.158 9.792C5.418 9.792 6.048 9.16667 6.048 7.916V6.516C5.83333 6.89867 5.52067 7.21133 5.11 7.454C4.69933 7.68733 4.23733 7.804 3.724 7.804C3.108 7.804 2.55733 7.65933 2.072 7.37C1.596 7.07133 1.22267 6.656 0.952 6.124C0.690667 5.58267 0.56 4.96667 0.56 4.276C0.56 3.58533 0.690667 2.974 0.952 2.442C1.22267 1.90067 1.596 1.48533 2.072 1.196C2.55733 0.897333 3.108 0.748 3.724 0.748C4.24667 0.748 4.70867 0.86 5.11 1.084C5.52067 1.29867 5.83333 1.602 6.048 1.994V0.93H7.784ZM4.186 6.432C4.76467 6.432 5.21733 6.24067 5.544 5.858C5.88 5.47533 6.048 4.948 6.048 4.276C6.048 3.604 5.88467 3.07667 5.558 2.694C5.23133 2.31133 4.774 2.12 4.186 2.12C3.60733 2.12 3.15 2.31133 2.814 2.694C2.48733 3.07667 2.324 3.604 2.324 4.276C2.324 4.948 2.48733 5.47533 2.814 5.858C3.15 6.24067 3.60733 6.432 4.186 6.432ZM15.8627 4.556H10.9907C11.028 5.312 11.2147 5.872 11.5507 6.236C11.896 6.59067 12.4047 6.768 13.0767 6.768C13.8513 6.768 14.57 6.516 15.2327 6.012L15.7367 7.216C15.4007 7.48667 14.9853 7.706 14.4907 7.874C14.0053 8.03267 13.5107 8.112 13.0067 8.112C11.8493 8.112 10.9393 7.78533 10.2767 7.132C9.61399 6.47867 9.28266 5.58267 9.28266 4.444C9.28266 3.72533 9.42732 3.086 9.71666 2.526C10.006 1.966 10.412 1.532 10.9347 1.224C11.4573 0.906666 12.05 0.748 12.7127 0.748C13.6833 0.748 14.4487 1.06533 15.0087 1.7C15.578 2.32533 15.8627 3.18867 15.8627 4.29V4.556ZM12.7547 2.008C12.288 2.008 11.9053 2.148 11.6067 2.428C11.3173 2.69867 11.1307 3.09533 11.0467 3.618H14.3367C14.2807 3.086 14.1173 2.68467 13.8467 2.414C13.5853 2.14333 13.2213 2.008 12.7547 2.008ZM21.3906 0.748C23.0799 0.748 23.9246 1.71867 23.9246 3.66V8H22.1746V3.744C22.1746 3.184 22.0672 2.778 21.8526 2.526C21.6379 2.26467 21.3066 2.134 20.8586 2.134C20.3266 2.134 19.8972 2.30667 19.5706 2.652C19.2439 2.988 19.0806 3.436 19.0806 3.996V8H17.3446V2.932C17.3446 2.18533 17.3072 1.518 17.2326 0.93H18.8706L18.9966 2.092C19.2392 1.66267 19.5659 1.33133 19.9766 1.098C20.3966 0.864666 20.8679 0.748 21.3906 0.748ZM29.5881 0.762C29.8588 0.762 30.0921 0.799333 30.2881 0.874L30.2741 2.47C29.9755 2.34867 29.6675 2.288 29.3501 2.288C28.7528 2.288 28.2955 2.46067 27.9781 2.806C27.6701 3.15133 27.5161 3.60867 27.5161 4.178V8H25.7801V2.932C25.7801 2.18533 25.7428 1.518 25.6681 0.93H27.3061L27.4461 2.176C27.6235 1.71867 27.9035 1.36867 28.2861 1.126C28.6688 0.883333 29.1028 0.762 29.5881 0.762ZM37.3138 4.556H32.4418C32.4792 5.312 32.6658 5.872 33.0018 6.236C33.3472 6.59067 33.8558 6.768 34.5278 6.768C35.3025 6.768 36.0212 6.516 36.6838 6.012L37.1878 7.216C36.8518 7.48667 36.4365 7.706 35.9418 7.874C35.4565 8.03267 34.9618 8.112 34.4578 8.112C33.3005 8.112 32.3905 7.78533 31.7278 7.132C31.0652 6.47867 30.7338 5.58267 30.7338 4.444C30.7338 3.72533 30.8785 3.086 31.1678 2.526C31.4572 1.966 31.8632 1.532 32.3858 1.224C32.9085 0.906666 33.5012 0.748 34.1638 0.748C35.1345 0.748 35.8998 1.06533 36.4598 1.7C37.0292 2.32533 37.3138 3.18867 37.3138 4.29V4.556ZM34.2058 2.008C33.7392 2.008 33.3565 2.148 33.0578 2.428C32.7685 2.69867 32.5818 3.09533 32.4978 3.618H35.7878C35.7318 3.086 35.5685 2.68467 35.2978 2.414C35.0365 2.14333 34.6725 2.008 34.2058 2.008Z" fill="#F6D525"/>
</svg>
