<svg width="15" height="15" viewBox="0 0 15 15" fill="none" xmlns="http://www.w3.org/2000/svg">
<g clip-path="url(#clip0_35:111)">
<path d="M12.8419 3.50802C12.5439 3.20994 12.1902 2.97348 11.8008 2.81215C11.4115 2.65082 10.9942 2.56779 10.5727 2.56779C10.1513 2.56779 9.73394 2.65082 9.34459 2.81215C8.95524 2.97348 8.60149 3.20994 8.30354 3.50802L7.68521 4.12635L7.06688 3.50802C6.46506 2.9062 5.64881 2.5681 4.79771 2.5681C3.94661 2.5681 3.13036 2.9062 2.52854 3.50802C1.92672 4.10984 1.58862 4.92608 1.58862 5.77718C1.58862 6.62829 1.92672 7.44453 2.52854 8.04635L3.14688 8.66468L7.68521 13.203L12.2235 8.66468L12.8419 8.04635C13.14 7.74841 13.3764 7.39466 13.5377 7.00531C13.6991 6.61596 13.7821 6.19863 13.7821 5.77718C13.7821 5.35573 13.6991 4.93841 13.5377 4.54906C13.3764 4.15971 13.14 3.80596 12.8419 3.50802V3.50802Z" stroke="#C5AA1E" stroke-width="2" stroke-linecap="round" stroke-linejoin="round"/>
</g>
<defs>
<clipPath id="clip0_35:111">
<rect width="14" height="14" fill="white" transform="translate(0.685181 0.818848)"/>
</clipPath>
</defs>
</svg>
