<svg width="44" height="44" viewBox="0 0 44 44" fill="none" xmlns="http://www.w3.org/2000/svg">
<path d="M38.0003 9.06854C37.0928 8.16054 36.0152 7.44025 34.8292 6.94882C33.6431 6.45739 32.3719 6.20445 31.0881 6.20445C29.8043 6.20445 28.5331 6.45739 27.347 6.94882C26.161 7.44025 25.0834 8.16054 24.1759 9.06854L22.2923 10.9521L20.4088 9.06854C18.5756 7.23531 16.0892 6.2054 13.4966 6.2054C10.904 6.2054 8.41757 7.23531 6.58433 9.06854C4.75109 10.9018 3.72119 13.3882 3.72119 15.9808C3.72119 18.5734 4.75109 21.0598 6.58433 22.893L8.46787 24.7765L22.2923 38.601L36.1168 24.7765L38.0003 22.893C38.9083 21.9854 39.6286 20.9079 40.1201 19.7218C40.6115 18.5358 40.8644 17.2646 40.8644 15.9808C40.8644 14.697 40.6115 13.4257 40.1201 12.2397C39.6286 11.0537 38.9083 9.97612 38.0003 9.06854V9.06854Z" stroke="#C5AA1E" stroke-width="2.58462" stroke-linecap="round" stroke-linejoin="round"/>
</svg>
