<svg width="21" height="20" viewBox="0 0 21 20" fill="none" xmlns="http://www.w3.org/2000/svg">
<g clip-path="url(#clip0_50:841)">
<path d="M10.0728 18.3333C14.7008 18.3333 18.4527 14.6024 18.4527 10C18.4527 5.39763 14.7008 1.66667 10.0728 1.66667C5.44468 1.66667 1.69287 5.39763 1.69287 10C1.69287 14.6024 5.44468 18.3333 10.0728 18.3333Z" stroke="black" stroke-width="2" stroke-linecap="round" stroke-linejoin="round"/>
<path d="M7.63403 7.5C7.83105 6.94306 8.21991 6.47342 8.73176 6.17428C9.24361 5.87513 9.8454 5.76578 10.4305 5.86559C11.0157 5.96541 11.5464 6.26794 11.9288 6.71961C12.3111 7.17128 12.5204 7.74294 12.5195 8.33334C12.5195 10 10.0055 10.8333 10.0055 10.8333" stroke="black" stroke-width="2" stroke-linecap="round" stroke-linejoin="round"/>
<path d="M10.0728 14.1667H10.0811" stroke="black" stroke-width="2" stroke-linecap="round" stroke-linejoin="round"/>
</g>
<defs>
<clipPath id="clip0_50:841">
<rect width="20.1117" height="20" fill="white" transform="translate(0.0168457)"/>
</clipPath>
</defs>
</svg>
