<svg width="35" height="35" viewBox="0 0 35 35" fill="none" xmlns="http://www.w3.org/2000/svg">
<path d="M13.125 26.25V7.29167L30.625 4.375V23.3333" stroke="#F7D525" stroke-opacity="0.8" stroke-width="3.83514" stroke-linecap="round" stroke-linejoin="round"/>
<path d="M8.75006 30.625C11.1663 30.625 13.1251 28.6662 13.1251 26.25C13.1251 23.8338 11.1663 21.875 8.75006 21.875C6.33381 21.875 4.37506 23.8338 4.37506 26.25C4.37506 28.6662 6.33381 30.625 8.75006 30.625Z" stroke="#F7D525" stroke-opacity="0.8" stroke-width="3.83514" stroke-linecap="round" stroke-linejoin="round"/>
<path d="M26.25 27.7083C28.6662 27.7083 30.625 25.7496 30.625 23.3333C30.625 20.9171 28.6662 18.9583 26.25 18.9583C23.8338 18.9583 21.875 20.9171 21.875 23.3333C21.875 25.7496 23.8338 27.7083 26.25 27.7083Z" stroke="#F7D525" stroke-opacity="0.8" stroke-width="3.83514" stroke-linecap="round" stroke-linejoin="round"/>
</svg>
