<svg width="44" height="44" viewBox="0 0 44 44" fill="none" xmlns="http://www.w3.org/2000/svg">
<path d="M29.1077 10.1525V31.0846C29.1077 31.1912 29.0988 31.2925 29.081 31.3938C29.2086 32.7602 28.8806 34.1305 28.1482 35.291C27.4158 36.4516 26.3201 37.3374 25.0318 37.8103C23.7435 38.2831 22.335 38.3167 21.0256 37.9055C19.7163 37.4944 18.5797 36.6618 17.793 35.5373C17.0062 34.4129 16.6135 33.0598 16.6759 31.6889C16.7384 30.3179 17.2526 29.0062 18.1383 27.9579C19.0241 26.9097 20.2316 26.1838 21.5729 25.8935C22.9142 25.6031 24.3139 25.7646 25.5538 26.3527V7.98462C25.554 7.72183 25.6124 7.46235 25.725 7.22486C25.8375 6.98738 26.0013 6.77781 26.2045 6.61125C26.4078 6.44469 26.6455 6.3253 26.9005 6.26166C27.1554 6.19802 27.4214 6.19173 27.679 6.24324L36.5637 8.02016C36.9663 8.10064 37.3287 8.31811 37.5891 8.63557C37.8496 8.95304 37.9921 9.35091 37.9923 9.76154V16.8692C37.9921 17.132 37.9337 17.3915 37.8212 17.629C37.7087 17.8665 37.5449 18.076 37.3416 18.2426C37.1383 18.4092 36.9007 18.5286 36.6457 18.5922C36.3907 18.6558 36.1248 18.6621 35.8671 18.6106L32.7699 17.9923C32.5384 17.9494 32.3177 17.8609 32.1206 17.732C31.9235 17.6031 31.7541 17.4363 31.622 17.2413C31.49 17.0464 31.398 16.8271 31.3515 16.5962C31.3049 16.3654 31.3047 16.1276 31.3509 15.8967C31.397 15.6658 31.4886 15.4463 31.6203 15.2511C31.7521 15.0559 31.9213 14.8889 32.1181 14.7596C32.315 14.6304 32.5355 14.5416 32.767 14.4983C32.9985 14.4551 33.2362 14.4583 33.4665 14.5077L34.4385 14.7032V11.2186L29.1077 10.1525ZM22.8885 34.6385C23.5954 34.6385 24.2733 34.3577 24.7732 33.8578C25.273 33.3579 25.5538 32.68 25.5538 31.9731C25.5538 31.2662 25.273 30.5882 24.7732 30.0884C24.2733 29.5885 23.5954 29.3077 22.8885 29.3077C22.1816 29.3077 21.5036 29.5885 21.0037 30.0884C20.5039 30.5882 20.2231 31.2662 20.2231 31.9731C20.2231 32.68 20.5039 33.3579 21.0037 33.8578C21.5036 34.3577 22.1816 34.6385 22.8885 34.6385ZM7.78461 15.0923C7.31334 15.0923 6.86138 14.9051 6.52814 14.5719C6.1949 14.2386 6.00769 13.7867 6.00769 13.3154C6.00769 12.8441 6.1949 12.3922 6.52814 12.0589C6.86138 11.7257 7.31334 11.5385 7.78461 11.5385H20.2231C20.6943 11.5385 21.1463 11.7257 21.4795 12.0589C21.8128 12.3922 22 12.8441 22 13.3154C22 13.7867 21.8128 14.2386 21.4795 14.5719C21.1463 14.9051 20.6943 15.0923 20.2231 15.0923H7.78461ZM7.78461 22.2C7.31334 22.2 6.86138 22.0128 6.52814 21.6796C6.1949 21.3463 6.00769 20.8944 6.00769 20.4231C6.00769 19.9518 6.1949 19.4998 6.52814 19.1666C6.86138 18.8334 7.31334 18.6462 7.78461 18.6462H20.2231C20.6943 18.6462 21.1463 18.8334 21.4795 19.1666C21.8128 19.4998 22 19.9518 22 20.4231C22 20.8944 21.8128 21.3463 21.4795 21.6796C21.1463 22.0128 20.6943 22.2 20.2231 22.2H7.78461ZM7.78461 29.3077C7.31334 29.3077 6.86138 29.1205 6.52814 28.7873C6.1949 28.454 6.00769 28.002 6.00769 27.5308C6.00769 27.0595 6.1949 26.6075 6.52814 26.2743C6.86138 25.9411 7.31334 25.7539 7.78461 25.7539H13.1154C13.5867 25.7539 14.0386 25.9411 14.3719 26.2743C14.7051 26.6075 14.8923 27.0595 14.8923 27.5308C14.8923 28.002 14.7051 28.454 14.3719 28.7873C14.0386 29.1205 13.5867 29.3077 13.1154 29.3077H7.78461Z" fill="#F6D525"/>
</svg>
