<svg width="33" height="33" viewBox="0 0 33 33" fill="none" xmlns="http://www.w3.org/2000/svg">
<path d="M22 7.1775V23.375C22 23.4575 21.9931 23.5359 21.9794 23.6143C22.0781 24.6716 21.8243 25.7319 21.2576 26.63C20.6908 27.528 19.843 28.2134 18.8461 28.5794C17.8492 28.9453 16.7592 28.9712 15.746 28.6531C14.7329 28.335 13.8534 27.6907 13.2446 26.8206C12.6358 25.9505 12.3319 24.9034 12.3802 23.8426C12.4285 22.7817 12.8264 21.7667 13.5118 20.9555C14.1972 20.1444 15.1316 19.5827 16.1695 19.3581C17.2074 19.1334 18.2905 19.2583 19.25 19.7134V5.5C19.2501 5.29665 19.2953 5.09586 19.3824 4.91209C19.4695 4.72833 19.5962 4.56616 19.7535 4.43727C19.9108 4.30839 20.0947 4.216 20.292 4.16676C20.4893 4.11751 20.6951 4.11264 20.8945 4.1525L27.7695 5.5275C28.0811 5.58978 28.3615 5.75805 28.563 6.00371C28.7646 6.24937 28.8748 6.55725 28.875 6.875V12.375C28.8749 12.5784 28.8297 12.7791 28.7426 12.9629C28.6555 13.1467 28.5288 13.3088 28.3715 13.4377C28.2142 13.5666 28.0303 13.659 27.833 13.7082C27.6357 13.7575 27.4299 13.7624 27.2305 13.7225L24.8339 13.244C24.6547 13.2108 24.4839 13.1424 24.3314 13.0426C24.1789 12.9429 24.0478 12.8138 23.9456 12.6629C23.8434 12.5121 23.7723 12.3424 23.7363 12.1637C23.7002 11.9851 23.7001 11.8011 23.7358 11.6224C23.7715 11.4438 23.8424 11.274 23.9443 11.1229C24.0462 10.9719 24.1772 10.8426 24.3295 10.7426C24.4818 10.6425 24.6525 10.5738 24.8316 10.5404C25.0107 10.5069 25.1947 10.5094 25.3729 10.5476L26.125 10.6989V8.0025L22 7.1775ZM17.1875 26.125C17.7345 26.125 18.2591 25.9077 18.6459 25.5209C19.0327 25.1341 19.25 24.6095 19.25 24.0625C19.25 23.5155 19.0327 22.9909 18.6459 22.6041C18.2591 22.2173 17.7345 22 17.1875 22C16.6405 22 16.1159 22.2173 15.7291 22.6041C15.3423 22.9909 15.125 23.5155 15.125 24.0625C15.125 24.6095 15.3423 25.1341 15.7291 25.5209C16.1159 25.9077 16.6405 26.125 17.1875 26.125ZM5.5 11C5.13533 11 4.78559 10.8551 4.52773 10.5973C4.26987 10.3394 4.125 9.98967 4.125 9.625C4.125 9.26033 4.26987 8.91059 4.52773 8.65273C4.78559 8.39487 5.13533 8.25 5.5 8.25H15.125C15.4897 8.25 15.8394 8.39487 16.0973 8.65273C16.3551 8.91059 16.5 9.26033 16.5 9.625C16.5 9.98967 16.3551 10.3394 16.0973 10.5973C15.8394 10.8551 15.4897 11 15.125 11H5.5ZM5.5 16.5C5.13533 16.5 4.78559 16.3551 4.52773 16.0973C4.26987 15.8394 4.125 15.4897 4.125 15.125C4.125 14.7603 4.26987 14.4106 4.52773 14.1527C4.78559 13.8949 5.13533 13.75 5.5 13.75H15.125C15.4897 13.75 15.8394 13.8949 16.0973 14.1527C16.3551 14.4106 16.5 14.7603 16.5 15.125C16.5 15.4897 16.3551 15.8394 16.0973 16.0973C15.8394 16.3551 15.4897 16.5 15.125 16.5H5.5ZM5.5 22C5.13533 22 4.78559 21.8551 4.52773 21.5973C4.26987 21.3394 4.125 20.9897 4.125 20.625C4.125 20.2603 4.26987 19.9106 4.52773 19.6527C4.78559 19.3949 5.13533 19.25 5.5 19.25H9.625C9.98967 19.25 10.3394 19.3949 10.5973 19.6527C10.8551 19.9106 11 20.2603 11 20.625C11 20.9897 10.8551 21.3394 10.5973 21.5973C10.3394 21.8551 9.98967 22 9.625 22H5.5Z" fill="#F6D525"/>
</svg>
