<svg width="110" height="14" viewBox="0 0 110 14" fill="none" xmlns="http://www.w3.org/2000/svg">
<path d="M0.386 0.184H2.708V11.092H8.702V13H0.386V0.184ZM18.1995 8.572H11.9355C11.9835 9.544 12.2235 10.264 12.6555 10.732C13.0995 11.188 13.7535 11.416 14.6175 11.416C15.6135 11.416 16.5375 11.092 17.3895 10.444L18.0375 11.992C17.6055 12.34 17.0715 12.622 16.4355 12.838C15.8115 13.042 15.1755 13.144 14.5275 13.144C13.0395 13.144 11.8695 12.724 11.0175 11.884C10.1655 11.044 9.73953 9.892 9.73953 8.428C9.73953 7.504 9.92553 6.682 10.2975 5.962C10.6695 5.242 11.1915 4.684 11.8635 4.288C12.5355 3.88 13.2975 3.676 14.1495 3.676C15.3975 3.676 16.3815 4.084 17.1015 4.9C17.8335 5.704 18.1995 6.814 18.1995 8.23V8.572ZM14.2035 5.296C13.6035 5.296 13.1115 5.476 12.7275 5.836C12.3555 6.184 12.1155 6.694 12.0075 7.366H16.2375C16.1655 6.682 15.9555 6.166 15.6075 5.818C15.2715 5.47 14.8035 5.296 14.2035 5.296ZM22.8438 5.602V9.67C22.8438 10.738 23.3418 11.272 24.3378 11.272C24.6138 11.272 24.9138 11.224 25.2378 11.128V12.91C24.8418 13.054 24.3618 13.126 23.7978 13.126C22.7658 13.126 21.9738 12.838 21.4218 12.262C20.8698 11.686 20.5938 10.858 20.5938 9.778V5.602H18.8478V3.91H20.5938V1.696L22.8438 0.94V3.91H25.2558V5.602H22.8438ZM44.3956 0.184V13H42.3436V5.044L38.9416 13H37.4116L33.9916 5.134V13H31.9396V0.184H33.7756L38.1856 10.21L42.5596 0.184H44.3956ZM54.9905 8.572H48.7265C48.7745 9.544 49.0145 10.264 49.4465 10.732C49.8905 11.188 50.5445 11.416 51.4085 11.416C52.4045 11.416 53.3285 11.092 54.1805 10.444L54.8285 11.992C54.3965 12.34 53.8625 12.622 53.2265 12.838C52.6025 13.042 51.9665 13.144 51.3185 13.144C49.8305 13.144 48.6605 12.724 47.8085 11.884C46.9565 11.044 46.5305 9.892 46.5305 8.428C46.5305 7.504 46.7165 6.682 47.0885 5.962C47.4605 5.242 47.9825 4.684 48.6545 4.288C49.3265 3.88 50.0885 3.676 50.9405 3.676C52.1885 3.676 53.1725 4.084 53.8925 4.9C54.6245 5.704 54.9905 6.814 54.9905 8.23V8.572ZM50.9945 5.296C50.3945 5.296 49.9025 5.476 49.5185 5.836C49.1465 6.184 48.9065 6.694 48.7985 7.366H53.0285C52.9565 6.682 52.7465 6.166 52.3985 5.818C52.0625 5.47 51.5945 5.296 50.9945 5.296ZM70.2773 13L64.3193 7.006V13H61.9973V0.184H64.3193V5.926L70.0433 0.184H72.8333L66.6053 6.34L73.1213 13H70.2773ZM79.0256 3.676C81.1976 3.676 82.2836 4.924 82.2836 7.42V13H80.0336V7.528C80.0336 6.808 79.8956 6.286 79.6196 5.962C79.3436 5.626 78.9176 5.458 78.3416 5.458C77.6576 5.458 77.1056 5.68 76.6856 6.124C76.2656 6.556 76.0556 7.132 76.0556 7.852V13H73.8236V6.484C73.8236 5.524 73.7756 4.666 73.6796 3.91H75.7856L75.9476 5.404C76.2596 4.852 76.6796 4.426 77.2076 4.126C77.7476 3.826 78.3536 3.676 79.0256 3.676ZM88.7913 13.144C87.8673 13.144 87.0513 12.952 86.3433 12.568C85.6473 12.184 85.1073 11.638 84.7233 10.93C84.3513 10.21 84.1653 9.37 84.1653 8.41C84.1653 7.45 84.3513 6.616 84.7233 5.908C85.1073 5.188 85.6473 4.636 86.3433 4.252C87.0513 3.868 87.8673 3.676 88.7913 3.676C89.7033 3.676 90.5073 3.868 91.2033 4.252C91.8993 4.636 92.4333 5.188 92.8053 5.908C93.1893 6.616 93.3813 7.45 93.3813 8.41C93.3813 9.37 93.1893 10.21 92.8053 10.93C92.4333 11.638 91.8993 12.184 91.2033 12.568C90.5073 12.952 89.7033 13.144 88.7913 13.144ZM88.7733 11.38C89.5413 11.38 90.1233 11.134 90.5193 10.642C90.9273 10.138 91.1313 9.394 91.1313 8.41C91.1313 7.438 90.9273 6.7 90.5193 6.196C90.1113 5.68 89.5353 5.422 88.7913 5.422C88.0353 5.422 87.4533 5.68 87.0453 6.196C86.6373 6.7 86.4333 7.438 86.4333 8.41C86.4333 9.394 86.6313 10.138 87.0273 10.642C87.4353 11.134 88.0173 11.38 88.7733 11.38ZM109.635 3.91L106.071 13H104.109L101.859 7.042L99.6635 13H97.6835L94.1195 3.91H96.4235L98.7635 10.318L101.121 3.91H102.741L105.099 10.372L107.439 3.91H109.635Z" fill="#C5AA1E"/>
</svg>
