<svg width="21" height="20" viewBox="0 0 21 20" fill="none" xmlns="http://www.w3.org/2000/svg">
<g clip-path="url(#clip0_50:845)">
<path d="M10.0728 12.5C11.4612 12.5 12.5868 11.3807 12.5868 10C12.5868 8.61929 11.4612 7.5 10.0728 7.5C8.68438 7.5 7.55884 8.61929 7.55884 10C7.55884 11.3807 8.68438 12.5 10.0728 12.5Z" stroke="black" stroke-width="2" stroke-linecap="round" stroke-linejoin="round"/>
<path d="M16.2737 12.5C16.1622 12.7513 16.1289 13.0302 16.1782 13.3005C16.2275 13.5708 16.3571 13.8203 16.5503 14.0167L16.6005 14.0667C16.7564 14.2214 16.88 14.4053 16.9643 14.6076C17.0487 14.8099 17.0921 15.0268 17.0921 15.2458C17.0921 15.4649 17.0487 15.6817 16.9643 15.8841C16.88 16.0864 16.7564 16.2702 16.6005 16.425C16.4449 16.58 16.2601 16.7029 16.0566 16.7868C15.8531 16.8706 15.635 16.9138 15.4148 16.9138C15.1945 16.9138 14.9765 16.8706 14.773 16.7868C14.5695 16.7029 14.3847 16.58 14.229 16.425L14.1788 16.375C13.9813 16.1829 13.7304 16.054 13.4586 16.005C13.1867 15.956 12.9064 15.9891 12.6536 16.1C12.4058 16.2056 12.1944 16.381 12.0455 16.6046C11.8966 16.8282 11.8167 17.0902 11.8156 17.3583V17.5C11.8156 17.942 11.6391 18.3659 11.3247 18.6785C11.0104 18.9911 10.5841 19.1667 10.1397 19.1667C9.69516 19.1667 9.26886 18.9911 8.95456 18.6785C8.64025 18.3659 8.46368 17.942 8.46368 17.5V17.425C8.45719 17.1492 8.36741 16.8817 8.206 16.6572C8.0446 16.4328 7.81904 16.2619 7.55865 16.1667C7.3059 16.0557 7.02552 16.0226 6.75368 16.0717C6.48185 16.1207 6.231 16.2495 6.03351 16.4417L5.98323 16.4917C5.82757 16.6466 5.64273 16.7696 5.43927 16.8534C5.23581 16.9373 5.01772 16.9805 4.79747 16.9805C4.57722 16.9805 4.35913 16.9373 4.15567 16.8534C3.95221 16.7696 3.76737 16.6466 3.61172 16.4917C3.45589 16.3369 3.33227 16.1531 3.24793 15.9507C3.16359 15.7484 3.12018 15.5315 3.12018 15.3125C3.12018 15.0935 3.16359 14.8766 3.24793 14.6743C3.33227 14.4719 3.45589 14.2881 3.61172 14.1333L3.662 14.0833C3.85519 13.8869 3.98478 13.6375 4.03407 13.3672C4.08336 13.0968 4.05008 12.818 3.93854 12.5667C3.83231 12.3202 3.65593 12.11 3.4311 11.9619C3.20628 11.8139 2.94283 11.7344 2.67317 11.7333H2.53071C2.08622 11.7333 1.65993 11.5577 1.34562 11.2452C1.03131 10.9326 0.854736 10.5087 0.854736 10.0667C0.854736 9.62463 1.03131 9.20071 1.34562 8.88815C1.65993 8.57559 2.08622 8.39999 2.53071 8.39999H2.60613C2.8835 8.39354 3.15251 8.30426 3.37817 8.14375C3.60384 7.98325 3.77573 7.75894 3.8715 7.49999C3.98305 7.24865 4.01632 6.96983 3.96703 6.6995C3.91774 6.42917 3.78815 6.17973 3.59496 5.98333L3.54468 5.93333C3.38885 5.77854 3.26524 5.59473 3.18089 5.39239C3.09655 5.19006 3.05314 4.97319 3.05314 4.75416C3.05314 4.53514 3.09655 4.31826 3.18089 4.11593C3.26524 3.9136 3.38885 3.72978 3.54468 3.57499C3.70033 3.42003 3.88517 3.2971 4.08864 3.21323C4.2921 3.12935 4.51019 3.08618 4.73043 3.08618C4.95068 3.08618 5.16877 3.12935 5.37223 3.21323C5.57569 3.2971 5.76054 3.42003 5.91619 3.57499L5.96647 3.62499C6.16396 3.81711 6.41481 3.94598 6.68665 3.995C6.95848 4.04401 7.23886 4.01092 7.49161 3.89999H7.55865C7.8065 3.79436 8.01788 3.61896 8.16677 3.39538C8.31566 3.17181 8.39556 2.90982 8.39664 2.64166V2.49999C8.39664 2.05797 8.57321 1.63404 8.88752 1.32148C9.20183 1.00892 9.62812 0.833328 10.0726 0.833328C10.5171 0.833328 10.9434 1.00892 11.2577 1.32148C11.572 1.63404 11.7486 2.05797 11.7486 2.49999V2.57499C11.7497 2.84315 11.8296 3.10514 11.9785 3.32872C12.1273 3.55229 12.3387 3.72769 12.5866 3.83333C12.8393 3.94426 13.1197 3.97735 13.3915 3.92833C13.6634 3.87932 13.9142 3.75044 14.1117 3.55833L14.162 3.50833C14.3177 3.35337 14.5025 3.23044 14.706 3.14656C14.9094 3.06269 15.1275 3.01952 15.3478 3.01952C15.568 3.01952 15.7861 3.06269 15.9896 3.14656C16.193 3.23044 16.3779 3.35337 16.5335 3.50833C16.6893 3.66312 16.813 3.84693 16.8973 4.04926C16.9816 4.25159 17.025 4.46847 17.025 4.68749C17.025 4.90652 16.9816 5.1234 16.8973 5.32573C16.813 5.52806 16.6893 5.71187 16.5335 5.86666L16.4832 5.91666C16.29 6.11306 16.1604 6.36251 16.1112 6.63284C16.0619 6.90317 16.0951 7.18198 16.2067 7.43333V7.49999C16.3129 7.74647 16.4893 7.95668 16.7141 8.10474C16.9389 8.2528 17.2024 8.33226 17.4721 8.33333H17.6145C18.059 8.33333 18.4853 8.50892 18.7996 8.82148C19.1139 9.13404 19.2905 9.55797 19.2905 9.99999C19.2905 10.442 19.1139 10.8659 18.7996 11.1785C18.4853 11.4911 18.059 11.6667 17.6145 11.6667H17.5391C17.2694 11.6677 17.006 11.7472 16.7812 11.8952C16.5563 12.0433 16.38 12.2535 16.2737 12.5V12.5Z" stroke="black" stroke-width="2" stroke-linecap="round" stroke-linejoin="round"/>
</g>
<defs>
<clipPath id="clip0_50:845">
<rect width="20.1117" height="20" fill="white" transform="translate(0.0168457)"/>
</clipPath>
</defs>
</svg>
