<svg width="44" height="44" viewBox="0 0 44 44" fill="none" xmlns="http://www.w3.org/2000/svg">
<path d="M42.9552 26.2084L37.5931 39.9968C37.1758 41.0698 36.5783 41.9601 35.8602 42.5788C35.142 43.1975 34.3283 43.5231 33.5001 43.5231H3.88742C2.516 43.5231 1.66152 41.2916 2.35252 39.5147L7.71469 25.7263C8.13199 24.6533 8.72949 23.763 9.44764 23.1443C10.1658 22.5256 10.9795 22.2 11.8077 22.2H41.4204C42.7918 22.2 43.6463 24.4315 42.9552 26.2084ZM11.8077 18.6462H36.0923V13.3154C36.0923 10.3712 34.5012 7.98462 32.5385 7.98462H20.6923L15.9538 0.876923H4.10768C2.14492 0.876923 0.553833 3.26355 0.553833 6.20769V37.0868L5.66819 23.9356C6.93699 20.673 9.28956 18.6462 11.8077 18.6462Z" fill="#C5AA1E"/>
</svg>
